<?xml version="1.0" encoding="UTF-8"?>
<svg width="240px" height="240px" viewBox="0 0 240 240" version="1.1" xmlns="http://www.w3.org/2000/svg" xmlns:xlink="http://www.w3.org/1999/xlink">
    <title>Combined Shape</title>
    <g id="Page-1" stroke="none" stroke-width="1" fill="none" fill-rule="evenodd">
        <path d="M240,0 L240,240 L0,240 L0,0 L240,0 Z M120.434,94.778 C114.358,94.778 110.018,95.5013333 107.414,96.948 C104.81,98.3946667 103.218667,100.3115 102.64,102.6985 C102.061333,105.0855 101.772,107.508667 101.772,109.968 C101.603222,109.919778 100.771389,110.136778 99.2765,110.619 C97.0341667,111.342333 94.3578333,112.572 91.2475,114.308 C88.1371667,116.044 85.063,118.431 82.025,121.469 C78.987,124.507 76.4553333,128.376833 74.43,133.0785 C72.4046667,137.780167 71.392,143.386 71.392,149.896 C71.392,158.865333 73.5981667,166.9305 78.0105,174.0915 C82.4228333,181.2525 88.4265,186.966833 96.0215,191.2345 C103.6165,195.502167 112.188,197.636 121.736,197.636 C129.258667,197.636 135.660167,196.623333 140.9405,194.598 C146.220833,192.572667 150.633167,190.041 154.1775,187.003 C157.721833,183.965 160.506667,180.890833 162.532,177.7805 C164.557333,174.670167 166.040167,171.993833 166.9805,169.7515 C167.920833,167.509167 168.463333,166.171 168.608,165.737 C169.91,161.541667 170.4525,158.142 170.2355,155.538 C170.0185,152.934 168.788833,150.691667 166.5465,148.811 C164.304167,146.930333 160.723667,144.977333 155.805,142.952 C151.175667,141.216 147.486667,140.601167 144.738,141.1075 C141.989333,141.613833 139.710833,143.096667 137.9025,145.556 C136.094167,148.015333 134.466667,151.415 133.02,155.755 C132.586,156.623 131.971167,157.454833 131.1755,158.2505 C130.379833,159.046167 129.186333,159.733333 127.595,160.312 C126.003667,160.890667 124.050667,161.18 121.736,161.18 C116.528,161.18 112.766667,160.239667 110.452,158.359 C108.137333,156.478333 106.98,153.440333 106.98,149.245 C106.98,146.351667 107.7395,144.073167 109.2585,142.4095 C110.7775,140.745833 112.7305,139.3715 115.1175,138.2865 C117.5045,137.2015 120.072333,136.1165 122.821,135.0315 C125.569667,133.9465 128.1375,132.572167 130.5245,130.9085 C132.9115,129.244833 134.8645,127.038667 136.3835,124.29 C137.9025,121.541333 138.662,117.852333 138.662,113.223 L138.662,111.704 C138.662,108.955333 138.408833,106.279 137.9025,103.675 C137.396167,101.071 135.877167,98.9371667 133.3455,97.2735 C130.813833,95.6098333 126.51,94.778 120.434,94.778 Z M121.085,41.83 C114.141,41.83 109.186167,42.8788333 106.2205,44.9765 C103.254833,47.0741667 101.482667,49.7143333 100.904,52.897 C100.325333,56.0796667 100.036,59.2623333 100.036,62.445 C100.036,70.1123333 101.374167,75.5373333 104.0505,78.72 C106.726833,81.9026667 112.332667,83.494 120.868,83.494 C127.812,83.494 132.730667,82.4451667 135.624,80.3475 C138.517333,78.2498333 140.253333,75.6096667 140.832,72.427 C141.410667,69.2443333 141.7,66.0616667 141.7,62.879 C141.7,55.2116667 140.361833,49.7866667 137.6855,46.604 C135.009167,43.4213333 129.475667,41.83 121.085,41.83 Z" id="Combined-Shape" fill="#FFFFFF"></path>
    </g>
</svg>