<?xml version="1.0" encoding="UTF-8"?>
<svg width="240px" height="240px" viewBox="0 0 240 240" version="1.1" xmlns="http://www.w3.org/2000/svg" xmlns:xlink="http://www.w3.org/1999/xlink">
    <title>Slice</title>
    <g id="Page-1" stroke="none" stroke-width="1" fill="none" fill-rule="evenodd">
        <g id="?" transform="translate(119, 120) rotate(180) translate(-119, -120)translate(-1, 0)" fill="#FFFFFF" fill-rule="nonzero">
            <path d="M119.566,145.222 C113.49,145.222 109.186167,144.390167 106.6545,142.7265 C104.122833,141.062833 102.603833,138.929 102.0975,136.325 C101.591167,133.721 101.338,131.044667 101.338,128.296 L101.338,126.777 C101.338,122.147667 102.0975,118.458667 103.6165,115.71 C105.1355,112.961333 107.0885,110.755167 109.4755,109.0915 C111.8625,107.427833 114.430333,106.0535 117.179,104.9685 C119.927667,103.8835 122.4955,102.7985 124.8825,101.7135 C127.2695,100.6285 129.2225,99.2541667 130.7415,97.5905 C132.2605,95.9268333 133.02,93.6483333 133.02,90.755 C133.02,86.5596667 131.862667,83.5216667 129.548,81.641 C127.233333,79.7603333 123.472,78.82 118.264,78.82 C115.949333,78.82 113.996333,79.1093333 112.405,79.688 C110.813667,80.2666667 109.620167,80.9538333 108.8245,81.7495 C108.028833,82.5451667 107.414,83.377 106.98,84.245 C105.533333,88.585 103.905833,91.9846667 102.0975,94.444 C100.289167,96.9033333 98.0106667,98.3861667 95.262,98.8925 C92.5133333,99.3988333 88.8243333,98.784 84.195,97.048 C79.2763333,95.0226667 75.6958333,93.0696667 73.4535,91.189 C71.2111667,89.3083333 69.9815,87.066 69.7645,84.462 C69.5475,81.858 70.09,78.4583333 71.392,74.263 C71.5366667,73.829 72.0791667,72.4908333 73.0195,70.2485 C73.9598333,68.0061667 75.4426667,65.3298333 77.468,62.2195 C79.4933333,59.1091667 82.2781667,56.035 85.8225,52.997 C89.3668333,49.959 93.7791667,47.4273333 99.0595,45.402 C104.339833,43.3766667 110.741333,42.364 118.264,42.364 C127.812,42.364 136.3835,44.4978333 143.9785,48.7655 C151.5735,53.0331667 157.577167,58.7475 161.9895,65.9085 C166.401833,73.0695 168.608,81.1346667 168.608,90.104 C168.608,96.614 167.595333,102.219833 165.57,106.9215 C163.544667,111.623167 161.013,115.493 157.975,118.531 C154.937,121.569 151.862833,123.956 148.7525,125.692 C145.642167,127.428 142.965833,128.657667 140.7235,129.381 C139.228611,129.863222 138.396778,130.080222 138.228,130.032 C138.228,132.491333 137.938667,134.9145 137.36,137.3015 C136.781333,139.6885 135.19,141.605333 132.586,143.052 C129.982,144.498667 125.642,145.222 119.566,145.222 Z M118.915,198.17 C110.524333,198.17 104.990833,196.578667 102.3145,193.396 C99.6381667,190.213333 98.3,184.788333 98.3,177.121 C98.3,173.938333 98.5893333,170.755667 99.168,167.573 C99.7466667,164.390333 101.482667,161.750167 104.376,159.6525 C107.269333,157.554833 112.188,156.506 119.132,156.506 C127.667333,156.506 133.273167,158.097333 135.9495,161.28 C138.625833,164.462667 139.964,169.887667 139.964,177.555 C139.964,180.737667 139.674667,183.920333 139.096,187.103 C138.517333,190.285667 136.745167,192.925833 133.7795,195.0235 C130.813833,197.121167 125.859,198.17 118.915,198.17 Z" id="Shape"></path>
        </g>
    </g>
</svg>